<?xml version="1.0" encoding="UTF-8" standalone="no"?>
<!DOCTYPE svg PUBLIC "-//W3C//DTD SVG 1.1//EN" "http://www.w3.org/Graphics/SVG/1.1/DTD/svg11.dtd">
<svg xmlns="http://www.w3.org/2000/svg" version="1.1" viewBox="0 0 512 512">
<path fill="#000000" d="M 321.14,93.04 Q 372.53,99.14 408.70,135.17 Q 415.95,142.40 421.77,150.28 Q 448.61,186.66 448.08,233.01 Q 448.00,239.84 448.00,240.00 Q 448.00,253.64 448.00,267.28 Q 448.00,274.75 446.54,278.01 Q 443.96,283.76 437.44,286.69 Q 433.39,288.50 429.49,287.83 Q 417.88,285.85 416.00,274.25 Q 413.97,261.74 405.92,247.57 Q 394.98,228.33 377.48,214.78 Q 352.51,195.43 320.79,190.50 A 0.64,0.63 4.3 0 0 320.06,191.12 Q 319.98,204.35 319.99,217.77 Q 319.99,227.97 318.58,232.58 Q 314.75,245.00 301.94,250.44 Q 297.12,252.48 291.02,251.41 Q 282.41,249.91 276.12,243.88 Q 229.77,199.42 183.68,154.69 Q 178.50,149.66 177.09,146.30 Q 174.58,140.34 177.36,134.55 Q 178.83,131.49 184.45,126.07 Q 227.83,84.20 271.17,42.29 Q 277.62,36.06 281.58,34.24 Q 288.09,31.25 295.22,32.32 Q 301.68,33.28 307.39,37.55 Q 315.06,43.27 318.24,52.42 Q 319.75,56.75 319.89,64.28 Q 320.14,77.11 319.97,91.70 A 1.34,1.33 -86.4 0 0 321.14,93.04 Z"/>
<path fill="#000000" d="M 190.21,320.93 Q 190.73,304.97 190.66,289.00 Q 190.58,271.16 206.02,262.78 Q 209.95,260.64 214.27,260.24 Q 218.18,259.87 222.63,261.26 Q 228.19,263.01 232.71,266.58 Q 233.29,267.04 240.87,274.35 Q 284.48,316.38 328.06,358.44 Q 338.00,368.03 332.93,377.62 Q 331.31,380.69 321.36,390.32 Q 278.91,431.39 236.45,472.46 Q 236.39,472.52 234.53,474.50 Q 231.47,477.75 226.75,479.00 Q 219.16,481.01 212.28,479.14 Q 205.78,477.37 200.25,472.15 Q 194.33,466.56 191.88,458.73 Q 190.50,454.29 190.50,445.62 Q 190.50,432.91 190.50,420.10 A 1.08,1.07 3.7 0 0 189.56,419.04 Q 137.22,412.41 101.15,376.23 Q 93.89,368.94 88.14,361.09 Q 67.72,333.19 63.40,298.71 Q 62.50,291.49 62.50,278.75 Q 62.50,266.02 62.50,253.30 Q 62.50,238.96 62.86,237.24 Q 64.86,227.61 75.08,224.64 Q 79.42,223.38 83.41,224.62 Q 92.04,227.32 94.09,236.60 Q 95.13,241.28 95.15,241.36 Q 106.38,280.55 141.19,303.06 Q 163.82,317.70 189.69,321.37 A 0.46,0.46 -84.9 0 0 190.21,320.93 Z"/>
</svg>
